<svg xmlns="http://www.w3.org/2000/svg" xmlns:xlink="http://www.w3.org/1999/xlink" version="1.1" x="0px" y="0px" viewBox="0 0 100 125" enable-background="new 0 0 100 100" xml:space="preserve"><g><path fill="none" d="M71.642,40.683c-2.455,0.114-8.247-0.618-8.269,2.753c-0.005,0.862,0.488,1.907,0.601,2.791   c0.179,1.36,0.179,2.731,0.022,4.096c-0.249,2.173-0.894,4.291-1.94,6.215c-1.577,2.894-3.999,5.272-6.909,6.757   c4.996-0.26,10.263-0.748,14.207-3.918c-1.951,0.444-3.972,0.542-5.96,0.26c-0.396-0.054-0.303-0.726,0.092-0.699   c2.146,0.135,4.183,0.103,6.286-0.444c1.474-0.39,4.855-1.458,6.085-3.061c-3.251,1.284-6.697,1.663-10.176,1.225   c-0.531-0.07-0.471-0.759,0-0.78V55.86c2.883,0.368,5.771,0.206,8.556-0.672c2.693-0.845,7.066-2.682,7.9-5.689   c-4.21,1.934-9.824,2.281-13.422,2.157c-0.493-0.016-0.498-0.786,0-0.775c6.069,0.125,14.603-0.851,18.168-6.502   c-5.321,2.314-11.758,2.595-17.448,1.913c-0.336-0.038-0.358-0.531,0-0.542c4.974-0.152,9.813,0.276,14.673-1.165   c4.194-1.246,8.832-3.961,10.561-8.198c-4.329,2.433-9.585,3.251-14.462,3.744C77.358,40.418,74.497,40.553,71.642,40.683z    M60.734,61.252c0.704-0.179,1.441-0.276,2.162-0.39c0.163-0.027,0.238,0.217,0.07,0.255c-0.726,0.157-1.458,0.336-2.195,0.428   C60.604,61.566,60.572,61.29,60.734,61.252z M64.018,61.257c0.108-0.016,0.125,0.163,0.022,0.19   c-0.997,0.282-2.048,0.531-3.078,0.661c-0.141,0.022-0.163-0.206-0.033-0.244C61.926,61.572,62.988,61.393,64.018,61.257z    M77.792,53.319c-0.927,0.417-1.913,0.889-2.894,1.149c-0.125,0.033-0.211-0.152-0.092-0.217c0.899-0.471,1.951-0.786,2.915-1.1   C77.819,53.119,77.889,53.276,77.792,53.319z M74.28,53.671c0.368-0.103,0.764-0.103,1.138-0.211   c0.417-0.114,0.802-0.298,1.165-0.526c0.13-0.081,0.238,0.114,0.119,0.2c-0.65,0.461-1.604,0.937-2.422,0.807   C74.14,53.921,74.156,53.709,74.28,53.671z M65.698,42.677c-0.477,0.293-0.851,0.672-1.203,1.105   c-0.103,0.125-0.331-0.043-0.233-0.179c0.347-0.477,0.807-0.845,1.328-1.116C65.714,42.417,65.817,42.601,65.698,42.677z    M66.207,41.951c-0.374,0.049-0.732,0.179-1.04,0.401c-0.32,0.238-0.461,0.574-0.715,0.851c-0.065,0.07-0.211,0.022-0.2-0.081   c0.103-0.824,1.203-1.338,1.934-1.338C66.277,41.783,66.304,41.935,66.207,41.951z M84.126,46.844   c-0.834,0.444-1.669,0.943-2.541,1.306c-0.141,0.054-0.222-0.163-0.103-0.238c0.807-0.477,1.701-0.84,2.547-1.235   C84.137,46.627,84.234,46.784,84.126,46.844z M80.544,47.846c0.661-0.363,1.349-0.683,2.027-1.013   c0.119-0.06,0.222,0.114,0.103,0.179c-0.661,0.358-1.317,0.737-1.994,1.062C80.528,48.15,80.393,47.928,80.544,47.846z    M91.295,39.301c0.07-0.076,0.222,0.005,0.184,0.108c-0.352,0.954-1.479,1.924-2.493,2.064c-0.157,0.022-0.276-0.184-0.114-0.276   c0.461-0.255,0.932-0.444,1.355-0.769C90.65,40.103,90.948,39.697,91.295,39.301z M87.762,40.965   c0.341-0.184,0.704-0.331,1.04-0.536c0.363-0.228,0.672-0.509,1.008-0.769c0.125-0.098,0.271,0.049,0.173,0.173   c-0.499,0.618-1.328,1.219-2.081,1.474C87.702,41.371,87.572,41.062,87.762,40.965z"/><path fill="none" d="M37.944,56.538c-1.046-1.924-1.691-4.042-1.94-6.215c-0.157-1.365-0.152-2.736,0.022-4.096   c0.114-0.883,0.607-1.929,0.601-2.791c-0.022-3.37-5.814-2.639-8.269-2.753c-2.856-0.13-5.717-0.266-8.567-0.553   c-4.877-0.493-10.133-1.311-14.462-3.744c1.728,4.237,6.372,6.952,10.561,8.198c4.86,1.441,9.699,1.013,14.673,1.165   c0.358,0.011,0.336,0.504,0,0.542c-5.689,0.683-12.127,0.401-17.448-1.913c3.565,5.652,12.1,6.627,18.168,6.502   c0.498-0.011,0.498,0.759,0,0.775c-3.598,0.125-9.212-0.222-13.416-2.157c0.834,3.007,5.207,4.844,7.895,5.689   c2.785,0.878,5.679,1.04,8.561,0.672v0.016c0.471,0.022,0.526,0.71,0,0.78c-3.484,0.439-6.93,0.06-10.181-1.225   c1.235,1.604,4.611,2.671,6.09,3.061c2.097,0.547,4.14,0.58,6.28,0.444c0.396-0.027,0.488,0.645,0.092,0.699   c-1.989,0.282-4.01,0.184-5.96-0.26c3.945,3.17,9.212,3.658,14.207,3.918C41.948,61.81,39.521,59.431,37.944,56.538z    M11.014,41.474C10,41.333,8.873,40.363,8.521,39.41c-0.038-0.103,0.114-0.184,0.184-0.108c0.347,0.396,0.65,0.802,1.073,1.127   c0.417,0.325,0.894,0.515,1.355,0.769C11.295,41.29,11.171,41.496,11.014,41.474z M12.097,41.306   c-0.753-0.255-1.582-0.856-2.081-1.474c-0.098-0.125,0.049-0.271,0.173-0.173c0.336,0.26,0.645,0.542,1.013,0.769   c0.331,0.206,0.694,0.352,1.04,0.536C12.428,41.062,12.298,41.371,12.097,41.306z M18.415,48.15   c-0.872-0.363-1.707-0.862-2.541-1.306c-0.108-0.06-0.011-0.217,0.098-0.168c0.845,0.396,1.739,0.759,2.547,1.235   C18.643,47.987,18.556,48.204,18.415,48.15z M19.32,48.074c-0.677-0.325-1.333-0.704-1.994-1.062   c-0.119-0.065-0.016-0.238,0.103-0.179c0.677,0.331,1.365,0.65,2.027,1.013C19.607,47.928,19.472,48.15,19.32,48.074z    M25.102,54.468c-0.981-0.26-1.967-0.732-2.894-1.149c-0.098-0.043-0.027-0.2,0.07-0.168c0.965,0.314,2.016,0.629,2.915,1.1   C25.313,54.316,25.226,54.5,25.102,54.468z M25.725,53.942c-0.824,0.13-1.777-0.347-2.427-0.807   c-0.119-0.087-0.011-0.282,0.119-0.2c0.363,0.228,0.748,0.412,1.165,0.526c0.374,0.108,0.769,0.108,1.143,0.211   C25.844,53.709,25.866,53.921,25.725,53.942z M33.815,41.783c0.732,0,1.837,0.515,1.934,1.338c0.011,0.103-0.135,0.152-0.2,0.081   c-0.255-0.276-0.396-0.612-0.715-0.851c-0.303-0.222-0.666-0.352-1.04-0.401C33.696,41.935,33.723,41.783,33.815,41.783z    M35.505,43.783c-0.352-0.433-0.726-0.813-1.203-1.105c-0.119-0.076-0.011-0.26,0.114-0.19c0.515,0.271,0.981,0.639,1.322,1.116   C35.836,43.739,35.614,43.907,35.505,43.783z M39.038,62.108c-1.029-0.13-2.081-0.379-3.078-0.661   c-0.103-0.027-0.087-0.206,0.027-0.19c1.024,0.135,2.086,0.314,3.083,0.607C39.201,61.902,39.179,62.13,39.038,62.108z    M39.228,61.544c-0.737-0.092-1.468-0.271-2.195-0.428c-0.168-0.038-0.092-0.282,0.07-0.255c0.721,0.114,1.458,0.211,2.162,0.39   C39.428,61.29,39.396,61.566,39.228,61.544z"/><path d="M94.573,35.649c-5.684,2.151-11.124,3.387-17.204,3.804c-2.704,0.184-5.413,0.276-8.117,0.417   c-1.647,0.081-4.741-0.379-6.188,0.558c-0.943,0.607-0.905,1.642-0.721,2.639c0.574,3.094,1.181,5.771,0.504,8.941   c-1.111,5.261-4.839,9.087-9.499,11.379c-0.119,0.005-0.238,0.011-0.352,0.016c-0.2,0.011-0.309,0.152-0.336,0.303   c-0.119,0.054-0.238,0.114-0.363,0.168c-0.282,0.119-0.076,0.569,0.206,0.488c0.255-0.076,0.509-0.157,0.759-0.244   c5.521-0.195,13.34-0.228,17.052-4.985c0.591-0.173,1.17-0.368,1.739-0.601c1.409-0.58,4.172-1.653,4.59-3.419   c2.384-1.051,5.966-2.872,6.004-5.857c2.265-1.143,4.053-2.791,4.785-5.126c2.617-1.246,8.258-4.671,7.461-7.884   C95.142,36.023,94.925,35.519,94.573,35.649z M84.11,44.584c-4.86,1.441-9.699,1.013-14.673,1.165   c-0.358,0.011-0.336,0.504,0,0.542c5.689,0.683,12.127,0.401,17.448-1.913c-3.565,5.652-12.1,6.627-18.168,6.502   c-0.498-0.011-0.493,0.759,0,0.775c3.598,0.125,9.212-0.222,13.422-2.157c-0.834,3.007-5.207,4.844-7.9,5.689   c-2.785,0.878-5.673,1.04-8.556,0.672v0.016c-0.471,0.022-0.531,0.71,0,0.78c3.479,0.439,6.925,0.06,10.176-1.225   c-1.23,1.604-4.611,2.671-6.085,3.061c-2.102,0.547-4.14,0.58-6.286,0.444c-0.396-0.027-0.488,0.645-0.092,0.699   c1.989,0.282,4.01,0.184,5.96-0.26c-3.945,3.17-9.212,3.658-14.207,3.918c2.91-1.485,5.332-3.863,6.909-6.757   c1.046-1.924,1.691-4.042,1.94-6.215c0.157-1.365,0.157-2.736-0.022-4.096c-0.114-0.883-0.607-1.929-0.601-2.791   c0.022-3.37,5.814-2.639,8.269-2.753c2.856-0.13,5.717-0.266,8.567-0.553c4.877-0.493,10.133-1.311,14.462-3.744   C92.942,40.623,88.304,43.338,84.11,44.584z"/><path d="M88.986,41.474c1.013-0.141,2.14-1.111,2.493-2.064c0.038-0.103-0.114-0.184-0.184-0.108   c-0.347,0.396-0.645,0.802-1.067,1.127c-0.423,0.325-0.894,0.515-1.355,0.769C88.71,41.29,88.829,41.496,88.986,41.474z"/><path d="M87.903,41.306c0.753-0.255,1.582-0.856,2.081-1.474c0.098-0.125-0.049-0.271-0.173-0.173   c-0.336,0.26-0.645,0.542-1.008,0.769c-0.336,0.206-0.699,0.352-1.04,0.536C87.572,41.062,87.702,41.371,87.903,41.306z"/><path d="M81.585,48.15c0.872-0.363,1.707-0.862,2.541-1.306c0.108-0.06,0.011-0.217-0.098-0.168   c-0.845,0.396-1.739,0.759-2.547,1.235C81.362,47.987,81.444,48.204,81.585,48.15z"/><path d="M80.68,48.074c0.677-0.325,1.333-0.704,1.994-1.062c0.119-0.065,0.016-0.238-0.103-0.179   c-0.677,0.331-1.365,0.65-2.027,1.013C80.393,47.928,80.528,48.15,80.68,48.074z"/><path d="M74.898,54.468c0.981-0.26,1.967-0.732,2.894-1.149c0.098-0.043,0.027-0.2-0.07-0.168c-0.965,0.314-2.016,0.629-2.915,1.1   C74.687,54.316,74.774,54.5,74.898,54.468z"/><path d="M74.28,53.942c0.818,0.13,1.772-0.347,2.422-0.807c0.119-0.087,0.011-0.282-0.119-0.2   c-0.363,0.228-0.748,0.412-1.165,0.526c-0.374,0.108-0.769,0.108-1.138,0.211C74.156,53.709,74.14,53.921,74.28,53.942z"/><path d="M66.185,41.783c-0.732,0-1.831,0.515-1.934,1.338c-0.011,0.103,0.135,0.152,0.2,0.081c0.255-0.276,0.396-0.612,0.715-0.851   c0.309-0.222,0.666-0.352,1.04-0.401C66.304,41.935,66.277,41.783,66.185,41.783z"/><path d="M65.589,42.487c-0.52,0.271-0.981,0.639-1.328,1.116c-0.098,0.135,0.13,0.303,0.233,0.179   c0.352-0.433,0.726-0.813,1.203-1.105C65.817,42.601,65.714,42.417,65.589,42.487z"/><path d="M60.962,62.108c1.029-0.13,2.081-0.379,3.078-0.661c0.103-0.027,0.087-0.206-0.022-0.19   c-1.03,0.135-2.092,0.314-3.089,0.607C60.799,61.902,60.821,62.13,60.962,62.108z"/><path d="M62.896,60.862c-0.721,0.114-1.458,0.211-2.162,0.39c-0.163,0.038-0.13,0.314,0.038,0.293   c0.737-0.092,1.468-0.271,2.195-0.428C63.135,61.078,63.059,60.835,62.896,60.862z"/><path d="M47.703,63.874c-0.125-0.054-0.244-0.114-0.363-0.168c-0.027-0.152-0.135-0.293-0.336-0.303   c-0.114-0.005-0.233-0.011-0.352-0.016c-4.655-2.292-8.382-6.118-9.499-11.379c-0.672-3.17-0.07-5.847,0.504-8.941   c0.19-0.997,0.222-2.032-0.715-2.639c-1.452-0.937-4.546-0.477-6.193-0.558c-2.704-0.141-5.413-0.233-8.112-0.417   c-6.085-0.417-11.525-1.653-17.209-3.804c-0.352-0.13-0.569,0.374-0.32,0.596c-0.797,3.213,4.844,6.638,7.467,7.884   c0.726,2.335,2.514,3.983,4.779,5.126c0.043,2.986,3.62,4.806,6.004,5.857c0.417,1.766,3.186,2.839,4.59,3.419   c0.569,0.233,1.154,0.428,1.739,0.601c3.717,4.757,11.531,4.79,17.058,4.985c0.249,0.087,0.498,0.168,0.753,0.244   C47.778,64.443,47.984,63.994,47.703,63.874z M30.645,59.377c1.951,0.444,3.972,0.542,5.96,0.26   c0.396-0.054,0.303-0.726-0.092-0.699c-2.14,0.135-4.183,0.103-6.28-0.444c-1.479-0.39-4.855-1.458-6.09-3.061   c3.251,1.284,6.697,1.663,10.181,1.225c0.526-0.07,0.471-0.759,0-0.78V55.86c-2.883,0.368-5.776,0.206-8.561-0.672   c-2.688-0.845-7.06-2.682-7.895-5.689c4.205,1.934,9.818,2.281,13.416,2.157c0.498-0.016,0.498-0.786,0-0.775   c-6.069,0.125-14.603-0.851-18.168-6.502c5.321,2.314,11.758,2.595,17.448,1.913c0.336-0.038,0.358-0.531,0-0.542   c-4.974-0.152-9.813,0.276-14.673-1.165c-4.189-1.246-8.832-3.961-10.561-8.198c4.329,2.433,9.585,3.251,14.462,3.744   c2.85,0.287,5.711,0.423,8.567,0.553c2.455,0.114,8.247-0.618,8.269,2.753c0.005,0.862-0.488,1.907-0.601,2.791   c-0.173,1.36-0.179,2.731-0.022,4.096c0.249,2.173,0.894,4.291,1.94,6.215c1.577,2.894,4.004,5.272,6.909,6.757   C39.857,63.035,34.59,62.547,30.645,59.377z"/><path d="M39.266,61.252c-0.704-0.179-1.441-0.276-2.162-0.39c-0.163-0.027-0.238,0.217-0.07,0.255   c0.726,0.157,1.458,0.336,2.195,0.428C39.396,61.566,39.428,61.29,39.266,61.252z"/><path d="M39.071,61.864c-0.997-0.293-2.059-0.471-3.083-0.607c-0.114-0.016-0.13,0.163-0.027,0.19   c0.997,0.282,2.048,0.531,3.078,0.661C39.179,62.13,39.201,61.902,39.071,61.864z"/><path d="M34.416,42.487c-0.125-0.07-0.233,0.114-0.114,0.19c0.477,0.293,0.851,0.672,1.203,1.105   c0.108,0.125,0.331-0.043,0.233-0.179C35.397,43.127,34.931,42.758,34.416,42.487z"/><path d="M35.549,43.203c0.065,0.07,0.211,0.022,0.2-0.081c-0.098-0.824-1.203-1.338-1.934-1.338c-0.092,0-0.119,0.152-0.022,0.168   c0.374,0.049,0.737,0.179,1.04,0.401C35.153,42.59,35.294,42.926,35.549,43.203z"/><path d="M25.725,53.671c-0.374-0.103-0.769-0.103-1.143-0.211c-0.417-0.114-0.802-0.298-1.165-0.526   c-0.13-0.081-0.238,0.114-0.119,0.2c0.65,0.461,1.604,0.937,2.427,0.807C25.866,53.921,25.844,53.709,25.725,53.671z"/><path d="M22.279,53.151c-0.098-0.033-0.168,0.125-0.07,0.168c0.927,0.417,1.913,0.889,2.894,1.149   c0.125,0.033,0.211-0.152,0.092-0.217C24.294,53.78,23.243,53.465,22.279,53.151z"/><path d="M17.429,46.833c-0.119-0.06-0.222,0.114-0.103,0.179c0.661,0.358,1.317,0.737,1.994,1.062   c0.152,0.076,0.287-0.146,0.135-0.228C18.795,47.483,18.106,47.164,17.429,46.833z"/><path d="M15.972,46.676c-0.108-0.049-0.206,0.108-0.098,0.168c0.834,0.444,1.669,0.943,2.541,1.306   c0.141,0.054,0.228-0.163,0.103-0.238C17.711,47.435,16.817,47.072,15.972,46.676z"/><path d="M12.244,40.965c-0.347-0.184-0.71-0.331-1.04-0.536c-0.368-0.228-0.677-0.509-1.013-0.769   c-0.125-0.098-0.271,0.049-0.173,0.173c0.498,0.618,1.328,1.219,2.081,1.474C12.298,41.371,12.428,41.062,12.244,40.965z"/><path d="M9.778,40.428c-0.423-0.325-0.726-0.731-1.073-1.127c-0.07-0.076-0.222,0.005-0.184,0.108   c0.352,0.954,1.479,1.924,2.493,2.064c0.157,0.022,0.282-0.184,0.119-0.276C10.672,40.943,10.195,40.754,9.778,40.428z"/></g><text x="0" y="115" fill="#000000" font-size="5px" font-weight="bold" font-family="'Helvetica Neue', Helvetica, Arial-Unicode, Arial, Sans-serif">Created by Valeriy</text><text x="0" y="120" fill="#000000" font-size="5px" font-weight="bold" font-family="'Helvetica Neue', Helvetica, Arial-Unicode, Arial, Sans-serif">from the Noun Project</text></svg>