<svg xmlns="http://www.w3.org/2000/svg" xmlns:xlink="http://www.w3.org/1999/xlink" version="1.1" x="0px" y="0px" viewBox="0 0 100.906 282.7525" style="enable-background:new 0 0 100.906 226.202;" xml:space="preserve"><g><ellipse transform="matrix(0.9739 -0.2268 0.2268 0.9739 -3.5077 14.4684)" cx="61.213" cy="22.5" rx="22.495" ry="22.495"/><path d="M13.573,71.398c-0.457-0.488-2.36-1.655-2.555-5.47c-0.017-0.334,0.018-0.7,0.076-1.079   c3.296,2.97,6.932,5.156,10.653,6.621c4.955,1.958,10.016,2.681,14.806,2.681c5.047-0.011,9.806-0.799,14.075-1.888   c-1.458,4.348-2.685,9.12-3.715,14.132c-1.283,0.538-28.067,12.051-26.621,35.569c0.816,13.259,11.728,19.711,21.38,22.841   c-0.115,10.185,0.139,16.944,0.139,16.944h18.068v54.452c0,5.523,4.479,10,10,10c5.523,0,10-4.477,10-10V161.75h20.855   c0,0,4.224-111.914-29.462-111.914c-2.855,0-5.432,0.821-7.768,2.292c-0.49,0.159-0.97,0.368-1.431,0.642h-0.002   c0,0,0,0-0.068,0.041c-1.065,0.7-13.73,7.456-25.453,7.341c-3.391,0-6.658-0.515-9.656-1.702c-3.004-1.196-5.784-3.027-8.406-6.011   c-0.024-0.028-0.052-0.051-0.076-0.079c1.529-1.318,3.395-1.55,8.825-4.36c5.206-2.694,7.832-14.344,8.306-16.66   c0.229-0.449,0.059-1.002-0.389-1.245l-10.799-5.864c-0.445-0.242-1.001-0.082-1.256,0.352   c-1.684,1.659-10.026,10.203-9.451,16.038c0.583,5.924,1.377,7.682,1.168,9.618c-2.121-0.496-4.44-0.003-6.204,1.54   c-2.91,2.544-3.206,6.967-0.661,9.878c0.32,0.367,0.652,0.71,0.981,1.059c-0.49,0.536-0.989,0.981-1.492,1.271   c-3.305,1.914-5.319,0.953-5.977,0.836C0.807,64.705,0.012,64.995,0,65.309l13.963,7.583   C14.222,72.712,14.027,71.885,13.573,71.398z M72.595,54.845c3.476,0,6.581,1.943,8.101,5.071   c0.595,1.245,3.533,7.912,3.548,18.079c0.048,7.989-1.984,22.602-14.522,38.574c0.14,0.081,0.285,0.167,0.423,0.247   c2.905,1.682,5.648,3.271,8.089,6.143l14.182,16.682c0.612,0.721,0.912,1.633,0.85,2.566c-0.064,0.96-0.501,1.827-1.23,2.444   l-8.692,7.39c-0.635,0.538-1.44,0.833-2.274,0.833c-0.411,0-0.807-0.09-1.187-0.225c-0.588-0.209-1.127-0.552-1.542-1.041   l-14.181-16.685c-0.193-0.228-0.365-0.457-0.543-0.686c-1.821-2.345-2.861-4.755-3.832-7.275c-1.366,0.803-2.921,1.242-4.544,1.242   c-0.583,0-1.158-0.059-1.718-0.167c-1.784-0.343-3.42-1.216-4.719-2.546c-3.467-3.544-3.403-9.253,0.142-12.724   c0.486-0.479,0.947-0.957,1.412-1.437c-0.623-0.806-1.095-1.404-1.283-1.635c-0.303-0.351-1.08-1.388-0.984-2.623   c0.052-0.694,0.371-1.322,0.899-1.77l0.848-0.72l1.61-1.369c0.47-0.401,1.046-0.613,1.661-0.613c1.342,0,2.329,1.012,2.693,1.446   c0.12,0.134,0.277,0.307,0.452,0.498c6.622-8.659,9.912-17.42,9.991-26.565c0.002-6.208-1.756-10.233-1.775-10.274   c-0.058-0.12-0.102-0.243-0.153-0.363c-1.86-4.333,0.018-9.489,4.351-11.594c0.898-0.436,1.842-0.71,2.813-0.831   C71.849,54.872,72.22,54.845,72.595,54.845z"/><path d="M61.529,125.64c-0.026,0.025-0.055,0.047-0.082,0.072c1.035,2.714,2.02,5.109,3.857,7.429   c0.129,0.163,0.239,0.327,0.377,0.488c3.027,3.563,14.179,16.682,14.179,16.682c0.006,0.007,0.014,0.013,0.021,0.02   c0.566,0.643,1.527,0.729,2.165,0.188l8.697-7.394c0.645-0.546,0.71-1.526,0.147-2.188c0,0-11.151-13.12-14.18-16.683   c-2.391-2.813-5.089-4.266-8.26-6.111C66.409,120.62,64.116,123.125,61.529,125.64z"/><path d="M50.619,108.425c0.033,0.039,0.472,0.593,1.128,1.44c1.152-1.243,2.243-2.486,3.255-3.732   c-0.437-0.472-0.714-0.777-0.739-0.806c0,0-0.918-1.103-1.521-0.59l-2.459,2.09c-0.037,0.031-0.051,0.07-0.077,0.105   c-0.256,0.347-0.026,0.853,0.186,1.18C50.51,108.295,50.619,108.425,50.619,108.425z"/><path d="M66.12,66.471c0.057,0.141,0.111,0.283,0.178,0.422h-0.001c0.232,0.524,1.95,4.732,1.946,11.104   c-0.06,7.013-1.901,16.713-10.614,28.028c-0.402,0.522-0.822,1.049-1.254,1.578c-1.04,1.274-2.165,2.567-3.388,3.878   c-0.452,0.485-0.919,0.972-1.397,1.462c-0.124,0.127-0.254,0.254-0.38,0.382c-0.287,0.29-0.57,0.58-0.866,0.871   c-2.763,2.704-2.815,7.135-0.111,9.898c0.849,0.868,1.868,1.467,2.952,1.798c0.669,0.205,1.361,0.309,2.054,0.309   c1.33,0,2.66-0.377,3.818-1.132c0.379-0.248,0.74-0.535,1.077-0.863c0.181-0.176,0.353-0.352,0.531-0.528   c2.223-2.194,4.233-4.388,6.049-6.573c0.435-0.523,0.858-1.045,1.271-1.567c11.107-14.043,14.319-27.556,14.258-37.541   c-0.012-10.141-3.037-16.557-3.347-17.208c-1.245-2.563-3.845-4.019-6.519-3.936c-0.956,0.03-1.92,0.251-2.835,0.696   C66.208,59.169,64.746,63.085,66.12,66.471z"/></g><text x="0" y="241.202" fill="#000000" font-size="5px" font-weight="bold" font-family="'Helvetica Neue', Helvetica, Arial-Unicode, Arial, Sans-serif">Created by Gan Khoon Lay</text><text x="0" y="246.202" fill="#000000" font-size="5px" font-weight="bold" font-family="'Helvetica Neue', Helvetica, Arial-Unicode, Arial, Sans-serif">from the Noun Project</text></svg>