<svg xmlns="http://www.w3.org/2000/svg" xmlns:xlink="http://www.w3.org/1999/xlink" version="1.1" x="0px" y="0px" viewBox="0 0 278.353 308.2475" style="enable-background:new 0 0 278.353 246.598;" xml:space="preserve"><g><path d="M46.203,154.187C20.682,154.195,0,174.872,0,200.394c0,18.334,10.699,34.118,26.176,41.586   c6.061,2.926,12.844,4.613,20.027,4.618c22.396-0.01,41.053-15.936,45.285-37.077h64.127l36.885-72.666l13.393,25.549   c-12.041,8.338-19.939,22.232-19.939,37.99c0,25.517,20.684,46.194,46.205,46.204c25.516-0.01,46.195-20.687,46.195-46.204   c0-25.521-20.68-46.198-46.195-46.207c-4.875,0-9.566,0.766-13.975,2.166l-41.215-78.598h-30.941v5.508   c2.014-0.18,4.096-0.409,6.283-0.718c0.465-0.067,0.939-0.099,1.407-0.099c4.947,0,9.198,3.698,9.891,8.603   c0.019,0.133,0.022,0.264,0.036,0.396h5.046l6.883,13.121h-58.639l-1.995,4.655l32.015,16.304   c6.388,3.256,9.421,10.57,7.213,17.391l-15.331,47.333c-1.945,6.002-7.488,10.036-13.794,10.036c-1.515,0-3.019-0.238-4.471-0.71   c-3.684-1.193-6.683-3.751-8.445-7.201c-1.761-3.45-2.075-7.377-0.879-11.061l11.519-35.563l-33.824-17.227H19.963L9.697,145.816   l56.613,0.001c11.096,7.072,30.873,22.652,34.963,45.451h-9.785C87.256,170.122,68.6,154.195,46.203,154.187z M72.584,209.521   c-3.797,10.936-14.152,18.797-26.381,18.816c-15.436-0.023-27.924-12.515-27.955-27.942c0.031-15.441,12.52-27.922,27.955-27.955   c12.228,0.027,22.59,7.885,26.381,18.83H45.063v18.252H72.584z M214.477,178.767l13.898,26.516l12.125-6.355l-13.615-25.968   c1.707-0.329,3.471-0.517,5.273-0.521c15.428,0.033,27.924,12.514,27.939,27.955c-0.016,15.428-12.512,27.92-27.939,27.942   c-15.438-0.023-27.924-12.515-27.955-27.942C204.221,191.668,208.219,183.892,214.477,178.767z"/><path d="M213.619,115.973v-27.95c-7.719,0-13.975,6.257-13.975,13.977c0,1.371,0.258,2.672,0.625,3.93   C201.979,111.718,207.273,115.973,213.619,115.973z"/><ellipse transform="matrix(0.4773 -0.8787 0.8787 0.4773 56.3901 139.796)" cx="145.704" cy="22.498" rx="22.494" ry="22.495"/><path d="M113.149,181.929c-2.129,6.566,1.471,13.616,8.039,15.744c1.279,0.414,2.578,0.611,3.854,0.611   c5.274,0.001,10.178-3.364,11.891-8.652l15.331-47.333c1.895-5.851-0.739-12.2-6.218-14.992l-36.952-18.82   c0.862-3.602,1.997-7.206,3.294-10.76c-5.04-3.117-8.954-7.756-10.879-12.991c-1.203-3.172-1.818-6.672-1.82-10.387   c0.042-4.214,0.812-10.741,4.245-18.02l0.12-0.257l0.024-0.057l0.049-0.097c1.712-3.377,5.131-5.476,8.921-5.476   c1.561,0,3.126,0.376,4.524,1.087c4.895,2.49,6.868,8.506,4.4,13.413l-0.014,0.033l-0.028,0.061   c-0.048,0.097-0.123,0.267-0.223,0.498c-0.17,0.389-0.498,1.188-0.838,2.227c-0.749,2.259-1.19,4.714-1.18,6.577   c-0.002,1.275,0.178,2.413,0.52,3.306c0.143,0.364,0.31,0.709,0.533,1.054c2.049-4.147,4.057-8.027,5.792-11.511   c5.408-8.834,4.953-21.315-2.711-25.633c-7.666-4.318-20.828-3.135-29.57,9.643C82.335,68.839,77.439,81.11,74.033,103.214   c-0.826,10.723,3.275,16.359,8.697,19.624c0.64,0.506,1.337,0.959,2.092,1.343v-0.002l40.372,20.563L113.149,181.929z"/><path d="M118.343,78.358c-0.431-1.124-0.655-2.491-0.653-4.012c-0.012-2.433,0.606-5.181,1.28-7.206   c0.33-1.013,0.664-1.85,0.9-2.398c0.118-0.273,0.208-0.476,0.265-0.591c0.026-0.059,0.045-0.095,0.05-0.109l0-0.001   c1.981-3.935,0.411-8.732-3.52-10.729c-3.937-2.002-8.754-0.431-10.754,3.508l-0.002-0.002c-0.22,0.583-4.121,7.82-4.218,17.527   c0.002,3.029,0.427,6.35,1.697,9.698c1.854,5.038,5.905,9.938,11.814,12.981c5.909,3.09,13.381,4.621,22.974,4.629   c4.928,0,10.435-0.413,16.649-1.288c4.374-0.617,7.421-4.664,6.805-9.038c-0.619-4.376-4.663-7.421-9.04-6.805   c-5.602,0.791-10.384,1.132-14.414,1.13c-10.564,0.006-15.593-2.358-17.705-4.259C119.37,80.419,118.786,79.491,118.343,78.358z"/></g><text x="0" y="261.598" fill="#000000" font-size="5px" font-weight="bold" font-family="'Helvetica Neue', Helvetica, Arial-Unicode, Arial, Sans-serif">Created by Gan Khoon Lay</text><text x="0" y="266.598" fill="#000000" font-size="5px" font-weight="bold" font-family="'Helvetica Neue', Helvetica, Arial-Unicode, Arial, Sans-serif">from the Noun Project</text></svg>