<svg xmlns="http://www.w3.org/2000/svg" xmlns:xlink="http://www.w3.org/1999/xlink" version="1.1" x="0px" y="0px" viewBox="0 0 100 125" enable-background="new 0 0 100 100" xml:space="preserve"><g><path d="M94.994,34.487c0.015-0.093-0.024-0.166-0.083-0.215c-0.088-0.127-0.239-0.21-0.424-0.185   c-5.713,0.868-11.416,1.771-17.124,2.669c-2.693,0.424-5.391,0.839-8.084,1.268c-2,0.317-4.283,0.478-5.908,1.834   c-2.717,2.273-2.449,6.85-3.298,9.986c-1.298,4.781-3.635,9.03-6.62,12.953c-0.239,0.312,0.288,0.707,0.537,0.415   c0.044-0.059,0.088-0.117,0.137-0.171c0.024,0.063,0.063,0.122,0.146,0.166c6.035,3.2,14.055,3.791,20.217,0.556   c0.117-0.063,0.098-0.22,0.015-0.288c0.141-0.088,0.112-0.346-0.093-0.351c-1.747-0.059-3.386-0.337-5.03-0.761   c4.742-0.688,9.386-2.869,13.138-5.791c0.088-0.068,0.073-0.171,0.02-0.244c0.02-0.102-0.044-0.22-0.166-0.21   c-1.922,0.132-3.839,0.21-5.757,0.288c4.322-1.2,8.196-3.41,10.723-6.937c0.083-0.117,0.02-0.244-0.083-0.307   c0.024-0.107-0.039-0.234-0.171-0.224c-1.381,0.088-2.742,0.166-4.113,0.21c3.259-1.093,6.308-2.834,8.05-5.893   c0.039-0.078,0.034-0.141,0.005-0.195c0.034-0.137-0.063-0.298-0.239-0.254c-2.542,0.624-5.02,0.922-7.591,1.098   c4.649-1.771,9.357-4.688,11.621-9.06C94.965,34.77,95.019,34.628,94.994,34.487z"/><path d="M39.925,49.845c-0.849-3.137-0.581-7.713-3.298-9.986c-1.625-1.356-3.908-1.517-5.908-1.834   c-2.693-0.429-5.386-0.844-8.084-1.268c-5.703-0.898-11.411-1.8-17.124-2.669c-0.185-0.024-0.332,0.059-0.424,0.185   c-0.059,0.049-0.098,0.122-0.083,0.215c-0.02,0.141,0.029,0.283,0.176,0.356c2.264,4.371,6.972,7.289,11.621,9.06   c-2.566-0.176-5.049-0.473-7.586-1.098c-0.181-0.044-0.278,0.117-0.244,0.254c-0.029,0.054-0.034,0.117,0.01,0.195   c1.742,3.059,4.791,4.801,8.05,5.893c-1.371-0.044-2.737-0.122-4.118-0.21c-0.132-0.01-0.195,0.117-0.171,0.224   c-0.102,0.063-0.166,0.19-0.083,0.307c2.527,3.527,6.401,5.737,10.723,6.937c-1.917-0.078-3.83-0.156-5.757-0.288   c-0.122-0.01-0.185,0.107-0.166,0.21c-0.054,0.073-0.068,0.176,0.02,0.244c3.752,2.922,8.396,5.103,13.138,5.791   c-1.644,0.424-3.283,0.703-5.025,0.761c-0.21,0.005-0.239,0.263-0.098,0.351c-0.083,0.068-0.102,0.224,0.015,0.288   c6.162,3.235,14.182,2.644,20.217-0.556c0.083-0.044,0.122-0.102,0.146-0.166c0.049,0.054,0.093,0.112,0.141,0.171   c0.244,0.293,0.771-0.102,0.537-0.415C43.564,58.875,41.228,54.626,39.925,49.845z"/></g><text x="0" y="115" fill="#000000" font-size="5px" font-weight="bold" font-family="'Helvetica Neue', Helvetica, Arial-Unicode, Arial, Sans-serif">Created by Valeriy</text><text x="0" y="120" fill="#000000" font-size="5px" font-weight="bold" font-family="'Helvetica Neue', Helvetica, Arial-Unicode, Arial, Sans-serif">from the Noun Project</text></svg>