<svg xmlns="http://www.w3.org/2000/svg" xmlns:xlink="http://www.w3.org/1999/xlink" xml:space="preserve" version="1.1" style="shape-rendering:geometricPrecision;text-rendering:geometricPrecision;image-rendering:optimizeQuality;" viewBox="0 0 254 107.5" x="0px" y="0px" fill-rule="evenodd" clip-rule="evenodd"><defs><style type="text/css">
   
    .fil1 {fill:none}
    .fil0 {fill:black}
   
  </style></defs><g><path class="fil0" d="M89 20c20,-21 94,-33 123,2 0,0 1,0 4,1l10 -13c12,0 18,1 28,1 -3,6 -7,12 -10,16l2 0c4,9 5,24 1,34l-21 6c0,-12 -10,-21 -22,-21 -12,0 -22,9 -22,21l-103 1c0,-13 -10,-22 -22,-22 -12,0 -22,9 -22,22l0 0 -32 0c-20,-46 79,-41 86,-48zm-5 43c0,0 -1,-1 -1,-2 0,-1 1,-2 1,-2l91 0c1,0 1,1 1,2 0,1 0,2 -1,2l-91 0zm25 -32c-1,0 -2,-1 -2,-2 0,-1 1,-1 2,-1l111 0c1,0 1,0 1,1 0,1 0,2 -1,2l-111 0zm99 -9l-1 0 0 -1 0 0c-11,-13 -32,-18 -54,-18l0 19 55 0zm-61 -19c-22,2 -44,8 -56,19l56 0 0 -19z"/><path class="fil0" d="M57 86c-10,0 -18,-8 -18,-18 0,-11 8,-19 18,-19 10,0 18,8 18,19 0,10 -8,18 -18,18zm0 -6c-7,0 -12,-6 -12,-12 0,-7 5,-13 12,-13 7,0 12,6 12,13 0,6 -5,12 -12,12z"/><path class="fil0" d="M204 86c-10,0 -18,-8 -18,-19 0,-10 8,-18 18,-18 10,0 18,8 18,18 0,11 -8,19 -18,19zm0 -6c-7,0 -12,-6 -12,-13 0,-6 5,-12 12,-12 7,0 12,6 12,12 0,7 -5,13 -12,13z"/><line class="fil1" x1="109" y1="29" x2="220" y2="29"/><line class="fil1" x1="84" y1="61" x2="175" y2="61"/></g><text x="0" y="101" fill="#000000" font-size="5px" font-weight="bold" font-family="'Helvetica Neue', Helvetica, Arial-Unicode, Arial, Sans-serif">Created by Sandy Priyasa</text><text x="0" y="106" fill="#000000" font-size="5px" font-weight="bold" font-family="'Helvetica Neue', Helvetica, Arial-Unicode, Arial, Sans-serif">from the Noun Project</text></svg>