<svg xmlns="http://www.w3.org/2000/svg" xmlns:xlink="http://www.w3.org/1999/xlink" version="1.1" x="0px" y="0px" viewBox="0 0 301.478 319.46500000000003" style="enable-background:new 0 0 301.478 255.572;" xml:space="preserve"><g><rect x="219.963" y="86.97" transform="matrix(0.9897 -0.1429 0.1429 0.9897 -11.2825 32.8347)" width="6" height="15.999"/><rect x="228.871" y="85.683" transform="matrix(0.9897 -0.1429 0.1429 0.9897 -11.0094 34.1033)" width="6" height="16"/><path d="M187.754,100.303c0-1.745,0.432-3.501,1.355-5.14c1.929-3.43,5.484-5.346,9.16-5.35c1.747,0.002,3.505,0.432,5.144,1.354   c3.425,1.929,5.342,5.486,5.346,9.161c0,1.744-0.432,3.503-1.352,5.141l-0.001-0.001c-0.184,0.327-0.396,0.626-0.608,0.925   c1.947,0.634,3.76,1.566,5.389,2.751c0.152-0.239,0.304-0.479,0.445-0.729l-2.611-1.473l2.613,1.471   c0.743-1.317,1.282-2.7,1.633-4.106l3.903-0.565l-2.289-15.835l-5.854,0.845c-1.062-1.081-2.288-2.034-3.672-2.814   c-2.549-1.437-5.342-2.127-8.087-2.127c-5.756-0.004-11.358,3.029-14.388,8.405c-1.439,2.551-2.129,5.342-2.127,8.085   c0,0.904,0.082,1.802,0.229,2.689l5.797-2.302C187.774,100.561,187.754,100.433,187.754,100.303z"/><path d="M255.243,105.088c-0.002-0.112-0.017-0.22-0.017-0.333c0-8.56,6.939-15.5,15.499-15.5c8.561,0,15.501,6.94,15.501,15.5   c0,8.397-6.68,15.217-15.015,15.476c-1.333,1.335-2.786,2.72-4.37,4.122c-8.589,7.555-17.532,12.72-26.699,15.464v22.007h24.002   v31.579c2.36-0.538,4.813-0.832,7.334-0.832c2.521,0,4.973,0.294,7.333,0.831v-31.579h22.498v-81.5h-61.166v4.081l-3.479,0.502   l2.289,15.836l1.19-0.172v15.646c4.888-2.45,8.92-5.561,11.487-7.786C252.935,107.307,254.141,106.179,255.243,105.088z"/><ellipse transform="matrix(0.2268 -0.9739 0.9739 0.2268 -29.2895 125.4001)" cx="64.334" cy="81.147" rx="22.494" ry="22.495"/><path d="M26.003,180.999c2.753,14.167,11.629,17.146,19.964,17.579c0.625,0.097,1.261,0.162,1.914,0.162h34.494l6.303,46.026   c0.858,6.265,6.219,10.806,12.372,10.807c0.564,0,1.134-0.038,1.709-0.117c6.839-0.936,11.624-7.241,10.688-14.081l-7.782-56.831   c-0.848-6.205-6.122-10.807-12.384-10.805H61.157c0.021-9.415,1.538-19.155,3.21-27.946c-4.893-1.586-8.829-3.797-11.712-5.8   c-5.125-3.552-8.071-7.081-9.099-8.433c-3.31-4.472-2.371-10.748,2.06-14.028c1.734-1.284,3.788-1.964,5.94-1.964   c3.171,0,6.083,1.451,7.992,3.981l0.084,0.099c0.168,0.202,0.43,0.5,0.799,0.877c0.724,0.744,1.937,1.871,3.597,3.016   c1.291,0.886,2.616,1.619,3.972,2.237c0.094-8.06-3.659-15.777-10.368-17.45c-8.537-2.128-20.912,2.508-25.947,17.15   C24.88,145.651,23.418,158.782,26.003,180.999z"/><path d="M121.401,116.295l10.163-28.681l-6.126-2.171l-9.836,27.759C117.828,113.546,119.859,114.623,121.401,116.295z"/><path d="M105.565,141.526l6.126,2.171l3.089-8.719c-2.95,2.044-5.887,3.836-8.809,5.4L105.565,141.526z"/><path d="M58.997,121.919c-0.418-0.428-0.713-0.765-0.882-0.967c-0.085-0.099-0.139-0.166-0.159-0.192l-0.006-0.008l0,0   c-2.642-3.501-7.615-4.228-11.145-1.612c-3.552,2.628-4.301,7.637-1.671,11.189h-0.002c0.369,0.483,3.178,4.22,8.664,8.021   c5.453,3.788,13.787,7.629,24.483,7.619c0.022,0,0.045,0,0.067,0c11.6,0,25.399-4.568,40.665-16.614   c3.47-2.731,4.071-7.762,1.34-11.232c-2.733-3.473-7.762-4.073-11.235-1.342c-13.308,10.436-23.426,13.169-30.837,13.188   c-6.842-0.01-11.867-2.369-15.387-4.783C61.15,123.985,59.832,122.776,58.997,121.919z"/><path d="M189.002,113.313l5.864,2.892c1.046-0.702,2.231-1.231,3.534-1.522c0.782-0.176,1.557-0.259,2.321-0.259   c4.789,0,9.137,3.314,10.232,8.196c0.174,0.78,0.256,1.557,0.256,2.319c0,4.789-3.31,9.135-8.188,10.231v-0.001   c-0.789,0.177-1.565,0.261-2.327,0.261c-4.792-0.002-9.137-3.314-10.23-8.194c-0.133-0.592-0.197-1.175-0.229-1.754l-5.853-2.886   c-0.109,0.763-0.178,1.535-0.178,2.319c0,1.2,0.13,2.423,0.407,3.643c1.734,7.665,8.529,12.873,16.083,12.871   c1.204,0,2.421-0.132,3.635-0.403l-0.654-2.927l0.66,2.925c2.83-0.64,5.321-1.973,7.342-3.775c1.884,0.535,3.758,0.955,5.611,1.255   l2.555-15.795c-0.953-0.154-1.925-0.373-2.908-0.624c-0.045-0.261-0.072-0.522-0.131-0.783c-1.735-7.67-8.529-12.878-16.084-12.878   c-1.202,0-2.424,0.133-3.644,0.407C193.893,109.55,191.141,111.153,189.002,113.313z"/><path d="M225.628,58.437l8.237-2.539l2.258,7.326l18.043-5.562l1.179,3.822l-18.044,5.562l2.565,8.322l46.599-14.365L272.1,14.405   l-20.671,6.372l-2.811-9.121c1.897-1.681,2.75-4.372,1.955-6.952c-1.084-3.518-4.816-5.491-8.334-4.407   c-3.518,1.084-5.491,4.816-4.407,8.334c0.795,2.581,3.016,4.324,5.53,4.645l2.812,9.121l-20.671,6.372l4.337,14.068l-8.237,2.539   L225.628,58.437z"/><path d="M228.058,139.015l-1.045-15.966c-0.691,0.046-1.385,0.068-2.087,0.068c-0.89,0-1.791-0.036-2.701-0.115l-1.365,15.942   c1.369,0.117,2.727,0.173,4.066,0.173C225.981,139.118,227.025,139.084,228.058,139.015z"/><path d="M238.569,137.176l-4.382-15.388c-1.565,0.446-3.158,0.789-4.777,1.015l2.212,15.847   C234.017,138.315,236.337,137.813,238.569,137.176z"/><path d="M241.913,136.107c2.221-0.791,4.348-1.702,6.379-2.703l-7.07-14.352c-1.517,0.746-3.076,1.414-4.665,1.978L241.913,136.107   z"/><path d="M264.883,122.079l-10.604-11.981c-1.297,1.147-2.69,2.299-4.164,3.412l9.642,12.768   C261.594,124.89,263.304,123.478,264.883,122.079z"/><path d="M257.048,128.236l-9.091-13.167c-1.424,0.984-2.912,1.92-4.451,2.781l7.811,13.964   C253.336,130.684,255.245,129.48,257.048,128.236z"/><path d="M241.478,225.571c0,16.569,13.431,30,30,30c16.568,0,30-13.431,30-30c0-16.569-13.432-30-30-30   C254.909,195.571,241.478,209.003,241.478,225.571z M291.478,225.572c0,11.028-8.972,20-19.999,20c-11.028,0-20-8.971-20-20   c0-11.028,8.972-19.999,20-19.999C282.506,205.572,291.478,214.544,291.478,225.572z"/><path d="M261.478,225.572c0,5.514,4.485,10,10,10c5.514,0,9.999-4.485,9.999-10c0-5.515-4.485-10-9.999-10   C265.963,215.572,261.478,220.057,261.478,225.572z"/><polygon points="193.298,126.041 198.26,129.515 201.988,124.19 195.313,119.516 180.727,109.303 160.211,94.939 156.483,100.263    181.988,118.122  "/><path d="M22.063,223.57c24.001,0,48.5,0,48.5,0c3.314,0,6-2.686,6-5.999s-2.686-5.999-6-5.999c0-0.002-22.325-0.002-45.23-0.002   c-9.928-16.021-13.32-32.998-13.332-48.988c-0.008-17.009,3.917-32.788,7.87-44.245c1.974-5.728,3.949-10.378,5.415-13.564   c0.732-1.593,1.339-2.82,1.753-3.637c0.208-0.407,0.368-0.713,0.472-0.909c0.104-0.194,0.136-0.254,0.136-0.254   c1.603-2.9,0.552-6.551-2.348-8.152c-2.9-1.604-6.551-0.552-8.153,2.348h-0.002C16.937,94.64,0.068,124.911,0,162.583   c-0.01,18.645,4.257,39.229,17.081,58.332C18.198,222.579,20.058,223.57,22.063,223.57z"/><path d="M218.898,154.072H81.564c-3.313,0-6,2.686-6,6c0,3.313,2.687,6,6,6h137.333c3.314,0,6-2.687,6-6   C224.897,156.758,222.211,154.072,218.898,154.072z"/><path d="M270.726,116.256c6.341,0,11.5-5.158,11.5-11.5s-5.16-11.5-11.5-11.5c-6.341,0-11.5,5.158-11.5,11.5   S264.384,116.256,270.726,116.256z M277.226,104.757c0,3.584-2.917,6.499-6.501,6.499c-3.584,0-6.499-2.915-6.499-6.499   c0-3.585,2.915-6.501,6.499-6.501C274.31,98.256,277.226,101.172,277.226,104.757z"/></g><text x="0" y="270.572" fill="#000000" font-size="5px" font-weight="bold" font-family="'Helvetica Neue', Helvetica, Arial-Unicode, Arial, Sans-serif">Created by Gan Khoon Lay</text><text x="0" y="275.572" fill="#000000" font-size="5px" font-weight="bold" font-family="'Helvetica Neue', Helvetica, Arial-Unicode, Arial, Sans-serif">from the Noun Project</text></svg>